<svg width="45" height="41" viewBox="0 0 45 41" fill="current" xmlns="http://www.w3.org/2000/svg">
<path d="M20.4774 0.13549C18.3198 0.693973 17.3641 2.65664 18.438 4.30018C18.8124 4.86664 19.3346 5.25758 20.1227 5.55278L20.6942 5.76819V7.26014V8.76007H21.5809H22.4676V7.26014V5.76022L23.0489 5.5448C23.7976 5.26556 24.4774 4.73101 24.8124 4.14859C25.1474 3.5582 25.2262 2.58484 24.9898 1.99444C24.3691 0.486536 22.3395 -0.343211 20.4774 0.13549ZM22.5365 1.70722C23.2755 2.05029 23.571 2.91993 23.1671 3.5582C22.9405 3.9252 22.7139 4.09274 22.241 4.25231C21.5119 4.49964 20.6449 4.30816 20.1424 3.77361C19.5907 3.18321 19.7484 2.16997 20.4774 1.75509C21.108 1.38809 21.8173 1.37213 22.5365 1.70722Z" fill="current"/>
<path d="M10.3397 6.78943C9.58111 7.04473 9.09835 7.36387 8.66485 7.90639C7.75844 9.0473 7.93578 10.5632 9.09835 11.5046C9.55155 11.8636 10.2511 12.1987 10.7831 12.3025C11.3644 12.4142 12.3693 12.3663 12.9407 12.1908C13.591 11.9913 14.5072 11.361 14.793 10.8983L14.99 10.5951L15.3841 10.8504C16.192 11.377 16.921 12.5099 17.0196 13.4035L17.0787 13.8662H17.9457H18.8225V13.4434C18.8225 12.3982 18.0935 11.0578 17.0196 10.1483C16.6353 9.82119 16.0639 9.42228 15.7486 9.26271C15.4137 9.09517 15.1772 8.91964 15.1772 8.83986C15.1772 8.76805 15.0393 8.48881 14.8718 8.21755C14.4974 7.59524 13.6895 6.99686 12.9604 6.77347C12.192 6.53412 11.0787 6.55008 10.3397 6.78943ZM12.5171 8.20159C13.7782 8.72018 13.7585 10.244 12.4875 10.7467C11.7585 11.0339 10.8323 10.9062 10.3299 10.4595C10.0836 10.2361 9.85698 9.75737 9.85698 9.46217C9.85698 9.15101 10.1427 8.61647 10.4087 8.42499C10.9801 8.01809 11.8471 7.92235 12.5171 8.20159Z" fill="current"/>
<path d="M29.4531 8.16968C28.0442 8.51275 26.9998 9.67758 26.9998 10.8903C26.9998 11.2493 26.9703 11.3131 26.8225 11.3131C26.4875 11.3131 25.4432 11.7918 25.1181 12.095C24.7338 12.4461 24.3791 13.0604 24.3003 13.5231L24.2412 13.8662H25.1772C26.0836 13.8662 26.1131 13.8582 26.1131 13.6827C26.1131 13.3795 26.4875 12.9886 26.9309 12.829C27.5023 12.6136 27.6501 12.6296 27.9851 12.9327C28.1427 13.0843 28.5565 13.3237 28.8915 13.4673C29.4334 13.7066 29.6205 13.7465 30.3989 13.7705C31.6206 13.8104 32.2412 13.6269 33.0688 12.9567C33.8176 12.3503 34.1132 11.7759 34.123 10.9541C34.1329 9.68556 33.2462 8.65636 31.7683 8.20159C31.1279 8.01011 30.1329 7.99416 29.4531 8.16968ZM31.2659 9.58982C32.0245 9.84513 32.5171 10.627 32.3102 11.2493C32.0836 11.9594 31.4235 12.3663 30.5467 12.3663C29.7486 12.3583 29.1279 11.9753 28.8718 11.3451C28.4087 10.2281 29.9161 9.12708 31.2659 9.58982Z" fill="current"/>
<path d="M20.6943 12.0312V13.8662H21.581H22.4677V12.0312V10.1962H21.581H20.6943V12.0312Z" fill="current"/>
<path d="M7.60055 13.2758C6.26064 13.563 4.90102 14.4566 4.24092 15.4778L3.90595 16.0044L3.34437 16.0522C2.03402 16.156 0.871449 16.7863 0.329574 17.6798C0.0832677 18.0867 0.0537109 18.2144 0.0537109 18.9723C0.0537109 19.7702 0.0635632 19.834 0.388688 20.3127C0.792631 20.9111 1.3148 21.31 2.06357 21.5972C2.54633 21.7807 2.74338 21.8046 3.60053 21.8046C4.48723 21.8046 4.63501 21.7807 5.10792 21.5812C6.60547 20.943 7.37394 19.7382 7.09808 18.4777C6.9503 17.8394 6.69414 17.4485 6.09315 16.9299L5.61039 16.515L5.81729 16.1799C6.31975 15.3741 7.43306 14.7278 8.50695 14.6161L8.97001 14.5603V13.8582V13.1481L8.55621 13.1561C8.31976 13.1561 7.89611 13.212 7.60055 13.2758ZM4.47738 17.7277C5.0094 17.975 5.32467 18.4378 5.32467 18.9404C5.32467 20.4643 2.8222 20.9589 1.9749 19.6026C1.16702 18.3261 2.94042 17.0017 4.47738 17.7277Z" fill="current"/>
<path d="M40.5366 13.9381C39.9848 14.0498 39.3346 14.345 38.9208 14.6721L38.5267 14.9833L38.0341 14.7838C36.97 14.345 35.6597 14.2333 34.5365 14.4647C34.2114 14.5365 33.9454 14.6003 33.9257 14.6163C33.906 14.6322 34.2213 15.438 34.4282 15.9088C34.4577 15.9726 34.6153 15.9646 34.9996 15.8848C35.6991 15.7332 36.4577 15.805 37.2065 16.1002L37.8075 16.3396L37.8567 16.9539C37.9159 17.7039 38.1523 18.1826 38.7434 18.7012C39.5612 19.4192 40.5267 19.7384 41.6991 19.6745C43.8666 19.5469 45.4134 17.8315 44.9011 16.1401C44.4873 14.7998 43.2262 13.9461 41.5809 13.8982C41.177 13.8823 40.704 13.8982 40.5366 13.9381ZM42.044 15.4221C42.5169 15.5816 42.7435 15.7492 42.9701 16.1162C43.5711 17.0736 42.7139 18.2065 41.3839 18.2065C40.3986 18.2065 39.6104 17.5762 39.6104 16.8023C39.6104 15.7332 40.8617 15.0232 42.044 15.4221Z" fill="current"/>
<path d="M17.2464 15.3742C16.7636 15.4938 16.1331 15.797 15.6996 16.1241C15.2661 16.4512 15.2661 16.4512 15.0001 16.3076C13.9163 15.7412 12.4877 15.6614 11.404 16.1161C10.6355 16.4273 9.85719 17.1374 9.85719 17.5283C9.85719 17.6161 10.2513 18.1745 10.7439 18.7649L11.6306 19.85V21.1824V22.5148L11.1281 23.5519C10.1823 25.4827 9.85719 26.9507 9.85719 29.2086C9.85719 30.0543 9.81778 30.4612 9.73896 30.525C9.65029 30.5968 8.49758 30.6208 5.14781 30.6208C0.576357 30.6208 0.418721 30.6287 0.133006 30.9319C-0.0443352 31.1154 -0.0443352 40.3384 0.133006 40.5219C0.408869 40.8091 0.635471 40.833 3.55174 40.833C6.72417 40.833 6.89166 40.8091 7.0887 40.3463C7.14782 40.2027 7.19708 39.9714 7.19708 39.8198C7.19708 39.5804 7.22664 39.5565 7.42368 39.5964C7.54191 39.6203 9.13797 39.9075 10.9705 40.2346L14.3104 40.841L23.3449 40.8171L32.3696 40.7931L33.0199 40.5378C33.7982 40.2267 34.3992 39.724 34.7637 39.0937C34.9805 38.7108 35.0297 38.5273 35.0297 37.9209C35.0297 37.3066 34.9903 37.1391 34.7637 36.7481C34.1726 35.7189 33.0297 35.0886 31.6307 35.0248L30.8622 34.9929L31.4435 34.4264C32.9903 32.9345 33.3745 31.7696 33.276 28.8256C33.1972 26.464 32.9706 25.5306 31.9558 23.4403L31.4336 22.3632V21.1664V19.9777L32.3105 18.8926C32.8031 18.3022 33.2268 17.7198 33.2563 17.6081C33.345 17.3209 33.1282 17.0097 32.5864 16.6028C32.0149 16.172 31.5223 15.9725 30.7637 15.8608C29.877 15.7332 28.9607 15.8927 28.1627 16.3076C27.9065 16.4432 27.9065 16.4432 27.4238 16.1002C27.1676 15.9167 26.7046 15.6614 26.409 15.5497C25.9361 15.3662 25.739 15.3422 24.8819 15.3422C23.7489 15.3422 23.5026 15.422 22.2907 16.1481L21.5814 16.5869L20.8129 16.1241C19.7686 15.4938 19.1577 15.3023 18.2316 15.3103C17.8277 15.3103 17.3843 15.3422 17.2464 15.3742ZM18.872 16.8501C19.0592 16.914 19.5617 17.1852 19.9952 17.4485C21.1183 18.1426 21.4139 18.2703 21.7292 18.2065C21.877 18.1745 22.4287 17.8873 22.9607 17.5682C24.1528 16.8581 24.4287 16.7384 24.9016 16.7384C25.4632 16.7464 25.9952 16.9858 26.6553 17.5363C27.4139 18.1666 27.6996 18.2942 28.1233 18.1745C28.3006 18.1267 28.5962 17.9591 28.7834 17.8075C28.9706 17.648 29.2563 17.4645 29.4336 17.4086C29.8573 17.257 30.5864 17.265 30.9509 17.4246L31.2465 17.5443L31.0691 17.7677C30.9706 17.8873 30.7144 18.2144 30.4977 18.4777L30.1036 18.9724H21.5814H13.0592L12.6651 18.4777C12.4483 18.2144 12.1922 17.8873 12.0937 17.7677L11.9163 17.5443L12.2119 17.4246C12.5469 17.281 13.2661 17.257 13.6405 17.3767C13.7784 17.4166 14.0838 17.5921 14.3203 17.7677C15.1676 18.3979 15.4631 18.366 16.5075 17.5443C16.8917 17.2411 17.3351 16.9379 17.4927 16.8661C17.8671 16.7145 18.4385 16.7065 18.872 16.8501ZM29.6602 21.1265V21.8446H21.5814H13.5025V21.1265V20.4085H21.5814H29.6602V21.1265ZM30.3795 24.1583C30.5864 24.5732 30.9016 25.3311 31.0593 25.8338C31.3647 26.7273 31.3647 26.8071 31.4139 28.9054C31.4435 30.3894 31.4139 31.1952 31.3351 31.4984C31.01 32.727 29.8474 33.9318 28.4484 34.4902C28.0248 34.6578 27.6602 34.7775 27.6307 34.7535C27.6011 34.7216 27.6504 34.5142 27.7292 34.2828C27.9361 33.7323 27.9262 33.2935 27.7095 32.7111C27.2267 31.4824 26.074 30.7564 24.3893 30.6367L23.6011 30.5729L22.2119 29.7272C21.4435 29.2565 20.7932 28.8176 20.7538 28.7458C20.606 28.4267 20.6947 28.0517 20.9804 27.8204C21.404 27.4853 21.7686 27.5092 22.3006 27.9081L22.7242 28.2193L23.3646 27.7007L23.9952 27.1821L23.473 26.7832C23.1873 26.5678 22.8425 26.3683 22.7045 26.3444C22.4779 26.2965 22.4681 26.2726 22.4681 25.5465V24.7966H21.5814H20.6947V25.5146C20.6947 26.2247 20.6947 26.2327 20.3991 26.3523C19.4237 26.7592 18.9213 27.4534 18.9213 28.3948C18.9213 29.1926 19.2267 29.7032 20.0247 30.2218L20.5863 30.5809L19.0001 30.6048L17.4139 30.6287L16.8424 30.3016C15.2464 29.3921 13.6208 29.1527 11.8572 29.5517C11.6404 29.5995 11.6306 29.5836 11.6306 29.0171C11.6306 27.3177 11.9754 25.8338 12.7242 24.254L13.1577 23.3605L21.5715 23.3764L29.9952 23.4004L30.3795 24.1583ZM14.7341 31.0037C14.9508 31.0675 15.3548 31.251 15.6208 31.4026C15.8966 31.5622 16.2612 31.7696 16.4484 31.8734L16.7833 32.0569H20.5863C22.9016 32.0569 24.5371 32.0888 24.7538 32.1366C26.005 32.4239 26.478 33.6605 25.6504 34.4583C25.138 34.945 24.8129 35.0088 22.6454 35.0088H20.6947V35.7269V36.4449H26.2415C31.4041 36.4449 31.808 36.4609 32.1726 36.5965C33.7194 37.163 33.5716 38.9501 31.946 39.3171C31.7095 39.365 28.6258 39.3969 23.0592 39.3969L14.537 39.3889L10.8917 38.7347L7.24634 38.0725L7.21678 35.0647L7.19708 32.0569H8.70447H10.2217L10.8523 31.6739C11.1971 31.4585 11.6404 31.2191 11.8276 31.1393C12.6454 30.7803 13.8572 30.7245 14.7341 31.0037ZM5.32515 35.7269V39.3969H3.55174H1.77833V35.7269V32.0569H3.55174H5.32515V35.7269Z" fill="current"/>
</svg>
