<svg width="52" height="50" viewBox="0 0 52 50" fill="current" xmlns="http://www.w3.org/2000/svg">
<path opacity="0.6" d="M41.5122 32.4188C41.5122 32.4188 43.8221 28.9411 39.3675 26.9277C38.8567 30.7433 37.1003 32.2755 37.581 33.3222C37.7774 33.7533 38.1865 33.9577 38.6949 33.9577C39.5362 33.9588 40.6524 33.3988 41.5526 32.3744C41.5399 32.3888 41.526 32.4055 41.5133 32.4188H41.5122Z" fill="current"/>
<path d="M41.512 32.4192C41.5247 32.4059 41.5386 32.3892 41.5513 32.3748C42.9415 30.8426 45.1127 26.0581 43.406 20.327C42.0563 15.797 39.2414 13.5592 35.5263 13.8492C28.7027 14.3803 20.0684 19.7392 21.6168 24.2092C22.4246 26.5381 28.5039 25.3181 33.0742 25.6292C35.9873 25.8281 37.9968 26.3081 39.3662 26.927C43.8208 28.9403 41.5109 32.4181 41.5109 32.4181L41.512 32.4192Z" fill="current"/>
<path opacity="0.6" d="M32.6899 37.0774C32.7812 37.3407 32.8667 37.5618 32.9465 37.7262C34.2707 40.4429 36.2976 39.3118 36.5784 39.1374C37.0256 38.7874 37.3988 38.4251 37.6889 38.0585C40.3455 34.7018 36.8303 35.8907 32.6899 37.0774Z" fill="current"/>
<path opacity="0.6" d="M15.7713 39.2591C15.7713 39.2591 15.777 39.2647 15.7805 39.268C15.9434 39.4125 17.2053 40.4358 19.2564 39.3047C20.7783 38.4669 21.7108 36.2402 22.5844 33.9913C19.6689 30.7147 14.0911 32.7169 14.2806 36.4769C14.3303 37.4636 14.8734 38.4125 15.762 39.2513C15.762 39.2513 15.7655 39.2536 15.7713 39.2602V39.2591Z" fill="current"/>
<path d="M32.9463 37.7244C32.8666 37.56 32.7811 37.3389 32.6898 37.0756C31.9699 35 30.8709 30.2456 28.873 28.8789C25.3231 26.45 24.037 30.25 22.5845 33.99C21.7109 36.2389 20.7783 38.4656 19.2565 39.3033C17.2053 40.4344 15.9423 39.4111 15.7805 39.2667C15.7771 39.2644 15.7748 39.2622 15.7725 39.26C15.9597 39.4533 18.7757 42.2644 25.0955 42.6389C32.1247 43.0533 36.6117 39.1144 36.6117 39.1144C36.6117 39.1144 36.6002 39.1222 36.5782 39.1356C36.2974 39.31 34.2717 40.4411 32.9463 37.7244Z" fill="current"/>
<path d="M15.7622 39.25C15.7622 39.25 15.7668 39.2556 15.7726 39.2612L15.7715 39.2601C15.7657 39.2534 15.7622 39.25 15.7622 39.25Z" fill="white"/>
<path opacity="0.6" d="M30.7276 9.26257C30.3058 8.45146 29.4068 7.81591 28.2027 7.55035C27.7417 7.46702 24.8713 7.06591 21.764 9.2848C18.8589 11.3592 16.2739 14.8459 16.2739 17.5059C16.2739 18.6359 16.6333 19.7181 17.1094 20.6904C17.8131 19.527 18.971 18.3648 20.672 17.5148C23.5932 16.0559 33.286 14.177 30.7276 9.26257Z" fill="current"/>
<path d="M21.764 9.28341C24.8701 7.06452 27.7416 7.46563 28.2027 7.54897C28.2455 7.55674 28.2686 7.5623 28.2686 7.5623C28.2686 7.5623 27.4504 7.33008 26.0095 7.33008C16.0463 7.33008 7.96777 15.2823 7.96777 25.0201C7.96777 32.6356 12.7379 33.7279 16.7858 31.2334C20.8326 28.7412 20.1866 25.6167 19.0981 23.8867C18.6162 23.1212 17.7553 22.0056 17.1105 20.689C16.6333 19.7167 16.2751 18.6345 16.2751 17.5045C16.2751 14.8445 18.86 11.3567 21.7651 9.28341H21.764Z" fill="current"/>
</svg>
