<svg width="38" height="45" viewBox="0 0 38 45" fill="current" xmlns="http://www.w3.org/2000/svg">
<path d="M17.1145 1.31618V2.63233H14.8475H12.5806V7.64249V12.6527L12.4171 12.6088C12.3204 12.5825 11.9116 12.4596 11.5029 12.328C10.4995 12.0033 8.87172 11.9244 7.77913 12.1437C3.95136 12.9159 0.948595 16.3379 0.160741 20.8128C-0.0548035 22.0675 -0.0548035 23.6031 0.168174 24.7788C0.688454 27.5515 2.21957 31.4473 4.873 36.7646C6.12167 39.2653 8.01698 42.7838 8.99065 44.4158L9.29538 44.9247L10.2468 43.2313C10.767 42.31 11.6366 40.7218 12.1792 39.704L13.1529 37.8614L25.5802 37.8351L38 37.8175L37.9851 20.2425L37.9628 2.67621L35.7554 2.64988L33.5405 2.63233V1.31618V2.67029e-05H25.3275H17.1145V1.31618ZM31.2364 3.94849V5.26464L33.4884 5.28219L35.7331 5.30851L35.7554 20.2425L35.7702 35.1852H31.1249H26.4795V32.4652V29.7451H25.3646H24.2497V32.4652V35.1852H19.3814C16.7057 35.1852 14.5131 35.1677 14.5131 35.1413C14.5131 35.115 14.7435 34.6061 15.0259 34.0094C16.7057 30.4821 18.0138 26.8934 18.4226 24.6998C18.5935 23.7698 18.5935 21.9886 18.4226 20.9444C18.0064 18.3999 16.8097 16.0747 15.0556 14.3724L14.8104 14.1355V9.70447V5.26464H17.0773H19.3442V3.94849V2.63233H25.2903H31.2364V3.94849ZM11.1907 14.9515C13.0117 15.5921 14.461 16.9258 15.405 18.8298C16.1482 20.3302 16.4901 22.2167 16.2969 23.7171C15.9327 26.5688 13.5542 32.2282 9.71904 39.3793L9.28052 40.1866L8.86429 39.4232C6.00275 34.1586 3.44594 28.4202 2.62836 25.4457C2.29389 24.2085 2.23443 23.8224 2.23443 22.8572C2.23443 20.7075 2.98512 18.628 4.30812 17.0837C5.14057 16.1097 5.99532 15.4868 7.09534 15.0568C7.93522 14.7234 8.34401 14.662 9.49606 14.6971C10.3508 14.7146 10.6555 14.7673 11.1907 14.9515Z" fill="current"/>
<path d="M19.79 9.91505V11.2312H22.0198H24.2496V9.91505V8.59889H22.0198H19.79V9.91505Z" fill="current"/>
<path d="M26.4795 9.91505V11.2312H28.7093H30.939V9.91505V8.59889H28.7093H26.4795V9.91505Z" fill="current"/>
<path d="M19.8045 15.1972L19.8268 16.5397L22.0417 16.566L24.2492 16.5836V15.2235V13.8635H22.0194H19.7822L19.8045 15.1972Z" fill="current"/>
<path d="M26.509 13.9776C26.4941 14.039 26.4867 14.6444 26.4941 15.3113L26.5164 16.5397L28.7313 16.566L30.9388 16.5836V15.2235V13.8635H28.7462C27.0144 13.8635 26.5387 13.8898 26.509 13.9776Z" fill="current"/>
<path d="M19.79 20.3566V21.6727H22.0198H24.2496V20.3566V19.0404H22.0198H19.79V20.3566Z" fill="current"/>
<path d="M26.4795 20.3566V21.6727H28.7093H30.939V20.3566V19.0404H28.7093H26.4795V20.3566Z" fill="current"/>
<path d="M19.79 25.6212V26.9373H22.0198H24.2496V25.6212V24.305H22.0198H19.79V25.6212Z" fill="current"/>
<path d="M26.5315 24.3664C26.5018 24.3928 26.4795 24.9894 26.4795 25.6826V26.9373H28.7093H30.939V25.6212V24.305H28.7613C27.5572 24.305 26.5538 24.3313 26.5315 24.3664Z" fill="current"/>
<path d="M8.12838 17.8998C7.37026 18.1367 6.68646 18.6105 6.11415 19.2949C4.40466 21.3481 4.40466 24.6297 6.11415 26.6829C8.45541 29.4819 12.4764 28.3676 13.5244 24.6122C13.8069 23.6119 13.8069 22.3659 13.5244 21.3656C12.7812 18.707 10.425 17.1978 8.12838 17.8998ZM10.2169 20.6111C11.9116 21.5762 11.9041 24.3928 10.2095 25.3755C9.71895 25.6651 8.81961 25.6651 8.34393 25.3755C7.54121 24.8842 7.08039 24.0155 7.08039 22.9889C7.08039 21.8044 7.70472 20.8216 8.71555 20.4356C9.03516 20.3039 9.86017 20.4005 10.2169 20.6111Z" fill="current"/>
</svg>
