<svg width="24" height="34" viewBox="0 0 24 36" fill="current" xmlns="http://www.w3.org/2000/svg">
<path d="M18.9473 6.31574V7.57894H22.1052C23.1499 7.57894 23.9998 8.42892 23.9998 9.47356V12C23.9998 13.0447 23.1498 13.8946 22.1052 13.8946H21.4737V15.1578H18.9473V13.8946H17.6841C16.986 13.8946 16.4209 13.3292 16.4209 12.6314C16.4209 11.9339 16.986 11.3682 17.6841 11.3682H21.4733V10.105H18.3155C17.2708 10.105 16.4209 9.255 16.4209 8.21036V5.68395C16.4209 4.63923 17.2709 3.78933 18.3155 3.78933H18.9473V2.52612H21.4737V3.78933H22.7369C23.435 3.78933 24.0001 4.35469 24.0001 5.05253C24.0001 5.75006 23.435 6.31574 22.7369 6.31574H18.9473Z" fill="current"/>
<path d="M12.6313 5.05244C12.6313 2.26642 10.3651 0 7.57881 0C4.79226 0 2.52637 2.26649 2.52637 5.05244C2.52637 7.8384 4.79256 10.1049 7.57881 10.1049C10.3654 10.1049 12.6313 7.8384 12.6313 5.05244ZM5.05248 5.05244C5.05248 3.65917 6.18584 2.52603 7.57889 2.52603C8.97156 2.52603 10.1053 3.65909 10.1053 5.05244C10.1053 6.4458 8.97194 7.57885 7.57889 7.57885C6.18621 7.57885 5.05248 6.4458 5.05248 5.05244Z" fill="current"/>
<path d="M20.2102 18.9469C20.2102 19.6444 19.6451 20.2101 18.9469 20.2101L13.8945 20.2104C13.5603 20.2104 13.2381 20.0774 13.0014 19.8404C12.7649 19.6033 12.6313 19.2823 12.6313 18.9472V16.4206C12.6313 15.0273 11.4979 13.8942 10.1049 13.8942L5.05245 13.8945C3.65978 13.8945 2.52604 15.0275 2.52604 16.4209V22.7365H3.78925C4.48737 22.7365 5.05245 23.3019 5.05245 23.9997V32.8416H10.1049L10.1052 23.999C10.1052 23.3014 10.6703 22.7358 11.3684 22.7358C12.0665 22.7358 12.6316 23.3011 12.6316 23.999V34.104C12.6316 34.8015 12.0665 35.3672 11.3684 35.3672H3.78961C3.0915 35.3672 2.52641 34.8019 2.52641 34.104V25.2621H1.2632C0.565085 25.2621 0 24.6967 0 23.9989V16.4201C0 13.6341 2.26619 11.3677 5.05244 11.3677H10.1049C12.8914 11.3677 15.1573 13.6342 15.1573 16.4201V17.6836L18.9469 17.6833C19.6438 17.6833 20.2101 18.2487 20.2101 18.9465L20.2102 18.9469Z" fill="current"/>
</svg>
