<svg width="33" height="33" viewBox="0 0 33 53" fill="current" xmlns="http://www.w3.org/2000/svg">
<path d="M15.7044 29.8474L14.9121 32.3259H16.5117L15.7044 29.8474Z" fill="current"/>
<path d="M12.4219 39.7461C12.4219 40.2034 12.0511 40.5742 11.5937 40.5742C11.1364 40.5742 10.7656 40.2034 10.7656 39.7461C10.7656 39.2888 11.1364 38.918 11.5937 38.918C12.0511 38.918 12.4219 39.2888 12.4219 39.7461Z" fill="current"/>
<path d="M21.5312 44.302C21.5312 44.7593 21.1604 45.1301 20.7031 45.1301C20.2458 45.1301 19.875 44.7593 19.875 44.302C19.875 43.8447 20.2458 43.4739 20.7031 43.4739C21.1604 43.4739 21.5312 43.8447 21.5312 44.302Z" fill="current"/>
<path d="M26.2724 24.8512C23.9152 21.5968 21.5174 18.4008 19.4582 14.9062H12.8384C10.78 18.4006 8.38249 21.5966 6.02496 24.8512C2.52652 29.6799 -0.365932 34.8237 0.0377157 41.1959C0.52091 48.8257 7.45311 52.5605 13.7684 52.9201C14.4464 52.9586 16.2349 53 16.3544 53C17.0797 53 17.8136 52.9608 18.5282 52.9201C24.8452 52.5612 31.7762 48.8265 32.2579 41.1959C32.6624 34.8231 29.7703 29.6799 26.2718 24.8512H26.2724ZM9.10905 39.746C9.10905 38.3741 10.2211 37.2616 11.5934 37.2616C12.9657 37.2616 14.0778 38.3741 14.0778 39.746C14.0778 41.1194 12.9657 42.2315 11.5934 42.2315C10.2211 42.2315 9.10905 41.1198 9.10905 39.746ZM14.3739 46.7994C14.2186 47.0582 13.9447 47.2016 13.663 47.2016C13.5181 47.2016 13.3709 47.1635 13.2378 47.0837C12.8456 46.8485 12.7188 46.3395 12.9539 45.9476L17.9226 37.6642C18.1577 37.272 18.6672 37.1444 19.0587 37.3799C19.4509 37.6154 19.5777 38.1245 19.3426 38.5164L14.3739 46.7994ZM20.7027 46.7875C19.3304 46.7875 18.2183 45.6751 18.2183 44.3021C18.2183 42.9301 19.3304 41.8177 20.7027 41.8177C22.075 41.8177 23.1871 42.9301 23.1871 44.3021C23.1871 45.6751 22.075 46.7875 20.7027 46.7875Z" fill="current"/>
<path d="M12.0078 11.5833C11.5509 11.5833 11.1797 11.9544 11.1797 12.4117C11.1797 12.8694 11.5509 13.2402 12.0078 13.2402H20.289C20.7467 13.2402 21.1171 12.869 21.1171 12.4117C21.1171 11.9541 20.7467 11.5833 20.289 11.5833H12.0078Z" fill="current"/>
<path d="M22.7745 1.01868C22.796 0.366909 22.2743 0.00790367 21.6518 0.000143028C20.0029 -0.0205599 19.3978 2.21316 17.7419 2.21316C16.7278 2.21316 16.6838 1.21866 15.9352 0.812739C15.1485 0.38685 14.5924 1.44824 14.1293 1.89081C13.6372 2.36032 12.9492 2.58361 12.3063 2.31152C11.6752 2.0446 11.1853 1.50078 10.5133 1.30481C10.0134 1.15915 9.52691 1.55768 9.5254 2.0527C9.52318 2.6346 9.98308 3.11222 10.294 3.56035C10.294 3.56035 12.0966 5.27318 12.8367 9.92653H19.5119C19.8487 7.43773 20.4857 4.91676 21.9338 2.82839C22.3142 2.27865 22.7516 1.72187 22.7745 1.01868Z" fill="current"/>
</svg>
