<svg width="22" height="22" viewBox="0 0 22 22" fill="none" xmlns="http://www.w3.org/2000/svg">
<path d="M10.3727 1.72227C9.99031 1.78672 9.48758 1.96719 9.10945 2.17773C8.62391 2.44844 7.96648 3.10156 7.70438 3.56562C6.8407 5.09961 7.08563 6.95156 8.31883 8.18047C9.0493 8.91523 9.96023 9.28906 11.0001 9.28906C12.0399 9.28906 12.9509 8.91523 13.6813 8.18047C14.9145 6.95156 15.1595 5.09961 14.2958 3.56562C14.0337 3.10156 13.3762 2.44844 12.8907 2.17773C12.1259 1.75234 11.202 1.58477 10.3727 1.72227Z" fill="#454545"/>
<path d="M3.5749 5.32731C2.72842 5.55074 1.99795 6.19098 1.66279 7.00309C1.50381 7.38981 1.45654 7.64762 1.45654 8.10309C1.45654 8.56285 1.53818 8.92809 1.74014 9.34489C2.09248 10.0754 2.80576 10.6511 3.60928 10.8531C3.97451 10.9476 4.61904 10.9433 4.98428 10.8488C5.62021 10.6855 6.29053 10.2129 6.65576 9.67145C7.23584 8.81207 7.2917 7.6734 6.80186 6.73239C6.58271 6.31129 6.06279 5.79137 5.6417 5.57223C5.01436 5.24567 4.24092 5.15543 3.5749 5.32731Z" fill="#454545"/>
<path d="M16.9813 5.32731C16.2551 5.52067 15.5375 6.08356 15.1981 6.73239C14.8071 7.48434 14.7555 8.3652 15.0649 9.14293C15.3914 9.95504 16.1563 10.6254 17.0156 10.8488C17.3809 10.9433 18.0254 10.9476 18.3906 10.8531C19.4047 10.5953 20.2125 9.78746 20.4746 8.7691C20.5563 8.45543 20.5692 7.8152 20.5004 7.49723C20.2727 6.45309 19.4391 5.58942 18.4078 5.32731C17.9781 5.21559 17.4067 5.21559 16.9813 5.32731Z" fill="#454545"/>
<path d="M8.40031 10.1621C7.74719 10.3082 7.3175 10.5488 6.82766 11.0387C6.41945 11.4469 6.20031 11.7949 6.01984 12.3234L5.90813 12.6543L5.89523 16.2637C5.88664 19.8129 5.88664 19.8773 5.97258 20.0148C6.01984 20.0922 6.11867 20.191 6.19602 20.2383C6.33352 20.3242 6.42375 20.3242 10.9999 20.3242C15.5761 20.3242 15.6663 20.3242 15.8038 20.2383C15.8812 20.191 15.98 20.0922 16.0273 20.0148C16.1132 19.8773 16.1132 19.8129 16.1046 16.2637L16.0917 12.6543L15.98 12.3234C15.7995 11.7949 15.5804 11.4469 15.1722 11.0387C14.764 10.6305 14.4159 10.4113 13.8874 10.2309L13.5566 10.1191L11.1073 10.1105C9.16945 10.1062 8.60227 10.1148 8.40031 10.1621Z" fill="#454545"/>
<path d="M2.75859 11.7773C1.52539 11.9363 0.511328 12.8129 0.120313 14.0504C0.0214844 14.3727 0.0214844 14.3813 0.0214844 16.607V18.8414L0.120313 19.0863C0.322266 19.5891 0.739063 20.0016 1.2375 20.2035C1.47383 20.298 1.52539 20.3023 3.10234 20.3152L4.72227 20.3281L4.6707 20.1863C4.60625 19.9973 4.57188 13.4316 4.63633 12.8473C4.66211 12.6238 4.71367 12.323 4.75234 12.1813C4.79102 12.0395 4.83398 11.8805 4.84258 11.8246L4.86406 11.7301L3.94883 11.7344C3.4418 11.7387 2.90469 11.7559 2.75859 11.7773Z" fill="#454545"/>
<path d="M17.1572 11.8246C17.1658 11.8805 17.2088 12.0395 17.2475 12.1813C17.2861 12.323 17.3377 12.6238 17.3635 12.8473C17.4279 13.4316 17.3936 19.9973 17.3291 20.1863L17.2775 20.3281L18.8975 20.3152C20.4744 20.3023 20.526 20.298 20.7623 20.2035C21.2607 20.0016 21.6775 19.5891 21.8795 19.0863L21.9783 18.8414V16.607C21.9783 14.377 21.9783 14.3727 21.8752 14.0504C21.5529 13.0191 20.8268 12.2543 19.8514 11.9234C19.4174 11.7773 18.9791 11.7301 17.9908 11.7301H17.1357L17.1572 11.8246Z" fill="#454545"/>
</svg>
