<svg width="134" height="35" viewBox="0 0 134 35" fill="none" xmlns="http://www.w3.org/2000/svg">
<path opacity="0.6" d="M129.376 25.9464C128.936 25.9464 128.582 25.7472 128.412 25.3272C127.871 24.0007 130.608 21.8721 129.984 15.0829C129.803 13.1336 129.926 10.4471 129.788 8.29215C129.739 7.52286 129.369 7.18501 129.159 7.05215C129.829 7.41072 132.569 9.12858 133.541 13.6164C134.334 17.2879 133.459 22.2414 131.938 24.2914C131.144 25.3614 130.132 25.9464 129.376 25.9464ZM118.296 34.1964C113.387 34.4607 108.381 31.6407 108.237 28.4014C108.038 23.9536 115.199 22.0279 116.661 28.7686C117.72 33.6522 132.911 23.6793 128.506 29.9414C127.062 31.9957 123.265 33.9272 118.296 34.195M109.962 15.2786C110.129 13.6071 111.277 11.3264 113.772 9.92358C116.302 8.50215 124.695 6.67143 122.479 1.88286C122.074 1.00643 121.164 0.338578 119.944 0.140721C117.278 -0.294994 110.03 2.72286 108.816 7.74572C107.715 12.2943 109.962 15.2786 109.962 15.2786Z" fill="white"/>
<path d="M133.457 12.6642C134.949 18.3006 133.018 22.9999 131.817 24.4463C131.817 24.4463 135.236 18.6535 124.511 17.8306C120.554 17.5278 115.289 18.717 114.591 16.4478C113.25 12.0913 120.727 6.87061 126.634 6.35204C129.851 6.06918 132.288 8.2499 133.457 12.6649M109.52 31.1042C109.52 31.1042 110.64 32.3399 112.546 31.1563C116.055 28.9806 115.951 17.2078 120.872 20.9978C122.822 22.4985 123.783 28.1935 124.4 29.6178C125.634 32.4663 127.574 30.972 127.574 30.972C127.574 30.972 123.688 34.8106 117.602 34.4063C111.934 34.0292 109.52 31.1035 109.52 31.1035" fill="white"/>
<path d="M102.771 17.2379C102.771 7.74929 109.766 0 118.393 0C119.642 0 120.35 0.226429 120.35 0.226429C120.35 0.226429 117.655 -0.457143 114.718 1.90357C112.202 3.925 109.964 7.32286 109.964 9.915C109.964 12.5071 111.683 14.8371 112.409 16.1336C113.351 17.8193 113.911 20.8636 110.407 23.2921C106.902 25.7221 102.771 24.6586 102.771 17.2379ZM0.0013202 19.1957C0.0013202 15.5157 2.54996 12.4364 6.1871 12.4364C9.82425 12.4364 12.2336 15.5914 12.2336 19.0957C12.2336 19.4464 12.2105 19.7964 12.1867 19.9471H2.15522C2.34071 22.5257 4.1243 24.3279 6.23265 24.3279C7.71523 24.3279 9.17537 23.4514 9.68497 22.15L11.4454 22.6757C10.658 24.6029 8.59514 25.9793 6.16334 25.9793C2.5262 25.9793 0 22.8757 0 19.1957H0.0013202ZM10.3101 18.3193C10.1021 15.8164 8.34167 14.0893 6.18578 14.0893C4.03056 14.0893 2.2714 15.8407 2.10835 18.3193H10.3101ZM33.5 25.7286H31.4616V18.4193C31.4616 15.6907 30.6279 14.4143 29.0298 14.4143C27.4311 14.4143 25.9485 15.8407 25.3927 17.8693V25.73H23.3536V18.4207C23.3536 15.6421 22.5424 14.4157 20.9443 14.4157C19.3462 14.4157 17.8636 15.7929 17.3071 17.8443V25.73H15.2687V12.6629H17.1223V15.4664C18.0953 13.5393 19.7396 12.4379 21.71 12.4379C23.6797 12.4379 24.953 13.7643 25.2309 15.6171C26.2977 13.5393 27.8727 12.4379 29.8417 12.4379C32.6221 12.4379 33.5026 14.7914 33.5026 17.92V25.73L33.5 25.7286ZM36.6289 19.1957C36.6289 15.5157 39.1775 12.4364 42.814 12.4364C46.4511 12.4364 48.8605 15.5914 48.8605 19.0957C48.8605 19.4464 48.838 19.7964 48.8143 19.9471H38.7828C38.9676 22.5257 40.7518 24.3279 42.8602 24.3279C44.3428 24.3279 45.8029 23.4514 46.3125 22.15L48.0723 22.6757C47.2855 24.6029 45.2227 25.9793 42.7902 25.9793C39.1531 25.9793 36.6275 22.8757 36.6275 19.1957H36.6289ZM46.9376 18.3193C46.7297 15.8164 44.9686 14.0893 42.8133 14.0893C40.6581 14.0893 38.8989 15.8407 38.7359 18.3193H46.9376ZM58.29 14.59C56.2516 14.64 54.5835 15.7664 53.9347 17.6686V25.73H51.897V12.6629H53.7974V15.6914C54.6311 13.8893 56.0906 12.5629 57.6193 12.5629C57.9203 12.5629 58.1283 12.5629 58.2907 12.5871L58.29 14.59ZM59.9812 21.9743C59.9812 19.4957 62.0895 17.8693 65.0778 17.8693C66.2594 17.8693 67.534 18.1193 68.4608 18.5207V17.4686C68.4608 15.3414 67.2792 14.04 65.2633 14.04C64.0117 14.04 62.7384 14.565 61.4169 15.5664L60.7456 14.14C62.2975 13.0143 63.8263 12.4379 65.4943 12.4379C68.575 12.4379 70.4985 14.3907 70.4985 17.695V23.0264C70.4985 23.5779 70.684 23.8029 71.1474 23.8271V25.73C70.8464 25.78 70.5441 25.83 70.313 25.83C69.6417 25.83 68.8305 25.4543 68.7836 24.5036L68.7367 23.5779C67.6476 25.155 65.794 25.9807 64.149 25.9807C61.7166 25.9807 59.9785 24.2036 59.9785 21.9757L59.9812 21.9743ZM68.0205 22.7757C68.3215 22.4 68.4608 22.0257 68.4608 21.7493V19.8221C67.4842 19.4175 66.4483 19.2058 65.4026 19.1971C63.3167 19.1971 61.9271 20.1986 61.9271 21.7757C61.9271 23.1279 62.9463 24.3293 64.6613 24.3293C65.959 24.3293 67.3261 23.6521 68.0205 22.7757ZM74.6459 7.45643H76.6843V22.35C76.6843 23.3264 77.1946 23.9021 78.0514 23.9021C78.3992 23.9021 78.9082 23.7771 79.3029 23.6021L79.627 25.3793C78.955 25.6793 77.9121 25.905 77.1946 25.905C75.6189 25.905 74.6459 24.8786 74.6459 23.1507V7.45643ZM81.0872 19.2207C81.0872 15.5157 83.381 12.4364 86.5772 12.4364C88.5232 12.4364 90.1213 13.6879 91.0025 15.265V7.45643H93.0416V23.0264C93.0416 23.5779 93.2264 23.8029 93.6898 23.8271V25.73C93.365 25.78 93.0871 25.83 92.8785 25.83C91.9524 25.83 91.3491 25.2293 91.3266 24.5036L91.2791 23.2771C90.3299 24.955 88.5918 25.9807 86.8544 25.9807C83.4952 25.9807 81.0858 22.8279 81.0858 19.2214L81.0872 19.2207ZM91.0025 21.1479V17.3921C90.4236 15.69 88.6856 14.3379 87.1561 14.3379C84.7699 14.3379 83.1942 16.7407 83.1942 19.2443C83.1942 21.8721 85.0022 24.075 87.3416 24.075C88.8011 24.075 90.7002 22.7729 91.0025 21.1464V21.1479Z" fill="white"/>
</svg>
