<svg width="9" height="9" viewBox="0 0 9 9" fill="none" xmlns="http://www.w3.org/2000/svg">
<g clip-path="url(#clip0_294_14055)">
<path opacity="0.6" d="M7.78166 6.13188C7.78166 6.13188 8.2703 5.36677 7.32797 4.92383C7.21993 5.76325 6.84837 6.10034 6.95006 6.33061C6.99161 6.42545 7.07815 6.47043 7.1857 6.47043C7.36366 6.47068 7.59979 6.34748 7.79021 6.1221C7.78753 6.12528 7.78435 6.12894 7.78166 6.13188Z" fill="#1B4357"/>
<path d="M7.78133 6.1324C7.78402 6.12947 7.78696 6.1258 7.78965 6.12262C8.08371 5.78553 8.54302 4.73296 8.18198 3.47211C7.89647 2.47551 7.301 1.9832 6.51511 2.047C5.07167 2.16384 3.24518 3.3428 3.57273 4.3262C3.7436 4.83856 5.02962 4.57015 5.9964 4.6386C6.61265 4.68235 7.03773 4.78795 7.3274 4.92411C8.26973 5.36704 7.78133 6.1324 7.78133 6.1324Z" fill="#1B4357"/>
<path opacity="0.6" d="M5.91504 7.15675C5.93435 7.21468 5.95244 7.26332 5.96931 7.2995C6.24944 7.89717 6.67819 7.64832 6.73759 7.60995C6.83219 7.53295 6.91115 7.45326 6.97251 7.37259C7.53448 6.63412 6.79088 6.89568 5.91504 7.15675Z" fill="#1B4357"/>
<path opacity="0.6" d="M2.33683 7.63698C2.33683 7.63698 2.33805 7.63821 2.33878 7.63894C2.37325 7.67072 2.64018 7.89585 3.07407 7.64701C3.39601 7.46269 3.59327 6.97283 3.77807 6.47807C3.16134 5.75721 1.98141 6.1977 2.0215 7.0249C2.03201 7.24196 2.1469 7.45072 2.33487 7.63527C2.33487 7.63527 2.33561 7.63551 2.33683 7.63698Z" fill="#1B4357"/>
<path d="M5.96984 7.29951C5.95297 7.26333 5.93488 7.21469 5.91557 7.15675C5.76328 6.70013 5.53082 5.65415 5.10817 5.35349C4.35724 4.81913 4.08517 5.65513 3.77791 6.47793C3.59311 6.97269 3.39584 7.46255 3.07391 7.64687C2.64002 7.89571 2.37284 7.67058 2.33862 7.6388L2.33691 7.63733C2.37651 7.67987 2.97222 8.29831 4.30908 8.38069C5.79604 8.47187 6.74522 7.60531 6.74522 7.60531C6.74522 7.60531 6.74277 7.60702 6.73813 7.60995C6.67873 7.64833 6.25022 7.89718 5.96984 7.29951Z" fill="#1B4357"/>
<path opacity="0.6" d="M5.49989 1.03771C5.41067 0.859263 5.22049 0.719441 4.96578 0.661019C4.86825 0.642685 4.26105 0.554441 3.60374 1.0426C2.9892 1.49897 2.44238 2.26604 2.44238 2.85124C2.44238 3.09984 2.5184 3.33793 2.61912 3.55182C2.76798 3.29589 3.01292 3.0402 3.37274 2.8532C3.99069 2.53224 6.04109 2.11889 5.49989 1.03771Z" fill="#1B4357"/>
<path d="M3.60397 1.04252C4.26104 0.554371 4.86848 0.642615 4.96601 0.660948C4.97506 0.66266 4.97995 0.663882 4.97995 0.663882C4.97995 0.663882 4.80688 0.612793 4.50206 0.612793C2.39446 0.612793 0.685547 2.36228 0.685547 4.50459C0.685547 6.18001 1.69461 6.4203 2.5509 5.87152C3.40695 5.32323 3.2703 4.63585 3.04004 4.25526C2.9381 4.08683 2.75599 3.84141 2.61959 3.55174C2.51864 3.33786 2.44286 3.09977 2.44286 2.85117C2.44286 2.26597 2.98944 1.49866 3.60397 1.04252Z" fill="#1B4357"/>
</g>
<defs>
<clipPath id="clip0_294_14055">
<rect width="9" height="9" fill="white"/>
</clipPath>
</defs>
</svg>
