<?xml version="1.0" encoding="UTF-8"?><svg id="Layer_1" xmlns="http://www.w3.org/2000/svg" viewBox="0 0 1920 1080"><defs><style>.cls-1{fill:none;}.cls-2{fill:green;}.cls-3,.cls-4{fill:#fff;}.cls-4{isolation:isolate;opacity:.6;}</style></defs><rect class="cls-2" width="1920" height="1080"/><g><path class="cls-4" d="M1607.8,606.77s19.99-31.3-18.56-49.42c-4.42,34.34-19.62,48.13-15.46,57.55,1.7,3.88,5.24,5.72,9.64,5.72h0c7.27,.01,16.93-5.03,24.73-14.25-.11,.13-.23,.27-.34,.4Z"/><path class="cls-3" d="M1607.8,606.77c.11-.12,.23-.27,.34-.4,12.03-13.78,30.83-56.85,16.06-108.43h0c-11.68-40.77-36.04-60.91-68.19-58.3-59.05,4.78-133.77,53.01-120.37,93.24,6.99,20.96,59.6,9.98,99.15,12.78,25.21,1.79,42.6,6.11,54.45,11.68,38.55,18.12,18.56,49.42,18.56,49.42Z"/></g><g><path class="cls-1" d="M1385.04,668.33s.01,.01,.01,.01c.02,.02,.04,.04,.07,.06-.03-.03-.05-.05-.08-.08Z"/><path class="cls-4" d="M1531.45,648.69c.79,2.37,1.53,4.36,2.22,5.84,11.46,24.45,29,14.27,31.43,12.7,3.87-3.15,7.1-6.41,9.61-9.71,22.99-30.21-7.43-19.51-43.26-8.83Z"/><path class="cls-4" d="M1385.04,668.33s.05,.05,.08,.08c1.41,1.3,12.33,10.51,30.08,.33,13.17-7.54,21.24-27.58,28.8-47.82-25.23-29.49-73.5-11.47-71.86,22.37,.43,8.88,5.13,17.42,12.82,24.97h0s.03,.02,.08,.08Z"/><path class="cls-3" d="M1533.68,654.52c-.69-1.48-1.43-3.47-2.22-5.84-6.23-18.68-15.74-61.47-33.03-73.77-30.72-21.86-41.85,12.34-54.42,46-7.56,20.24-15.63,40.28-28.8,47.82-17.75,10.18-28.68,.97-30.08-.33-.03-.02-.05-.04-.07-.06,1.62,1.74,25.99,27.04,80.68,30.41,60.83,3.73,99.66-31.72,99.66-31.72,0,0-.1,.07-.29,.19-2.43,1.57-19.96,11.75-31.43-12.7Z"/><path class="cls-3" d="M1384.96,668.25h0s.04,.05,.09,.1c0,0-.01-.01-.01-.01-.05-.06-.08-.09-.08-.09Z"/></g><g><path class="cls-4" d="M1514.48,398.36c-3.65-7.3-11.43-13.02-21.85-15.41-3.99-.75-28.83-4.36-55.72,15.61-25.14,18.67-47.51,50.05-47.51,73.99,0,10.17,3.11,19.91,7.23,28.66,6.09-10.47,16.11-20.93,30.83-28.58,25.28-13.13,109.16-30.04,87.02-74.27Z"/><path class="cls-3" d="M1436.91,398.55c26.88-19.97,51.73-16.36,55.72-15.61,.37,.07,.57,.12,.57,.12,0,0-7.08-2.09-19.55-2.09-86.22,0-156.13,71.57-156.13,159.21,0,68.54,41.28,78.37,76.31,55.92,35.02-22.43,29.43-50.55,20.01-66.12-4.17-6.89-11.62-16.93-17.2-28.78-4.13-8.75-7.23-18.49-7.23-28.66,0-23.94,22.37-55.33,47.51-73.99Z"/></g><path class="cls-3" d="M290.39,558.27c0-33.99,25.48-62.43,61.82-62.43s60.43,29.14,60.43,61.5c0,3.24-.23,6.47-.47,7.87h-100.25c1.85,23.82,19.68,40.46,40.75,40.46,14.82,0,29.41-8.09,34.5-20.12l17.6,4.85c-7.87,17.8-28.48,30.52-52.79,30.52-36.35,0-61.6-28.67-61.6-62.66h.01Zm103.03-8.09c-2.08-23.12-19.68-39.07-41.22-39.07s-39.13,16.18-40.75,39.07h81.97Z"/><path class="cls-3" d="M625.2,618.6h-20.38v-67.51c0-25.2-8.34-36.99-24.31-36.99s-30.79,13.18-36.35,31.91v72.6h-20.38v-67.51c0-25.67-8.11-36.99-24.08-36.99s-30.79,12.72-36.35,31.67v72.83h-20.38v-120.69h18.52v25.89c9.73-17.8,26.16-27.97,45.85-27.97s32.42,12.25,35.19,29.36c10.66-19.19,26.4-29.36,46.08-29.36,27.78,0,36.59,21.74,36.59,50.63v72.13h-.02Z"/><path class="cls-3" d="M656.46,558.27c0-33.99,25.48-62.43,61.82-62.43s60.43,29.14,60.43,61.5c0,3.24-.23,6.47-.47,7.87h-100.25c1.85,23.82,19.68,40.46,40.75,40.46,14.82,0,29.41-8.09,34.5-20.12l17.6,4.85c-7.87,17.8-28.48,30.52-52.79,30.52-36.35,0-61.6-28.67-61.6-62.66h.01Zm103.03-8.09c-2.08-23.12-19.68-39.07-41.22-39.07s-39.13,16.18-40.75,39.07h81.97Z"/><path class="cls-3" d="M872.95,515.73c-20.38,.47-37.05,10.87-43.53,28.44v74.45h-20.38v-120.69h18.99v27.97c8.34-16.65,22.93-28.9,38.2-28.9,3.01,0,5.09,0,6.71,.23v18.5Z"/><path class="cls-3" d="M889.85,583.93c0-22.89,21.07-37.92,50.94-37.92,11.82,0,24.55,2.31,33.81,6.02v-9.72c0-19.65-11.81-31.67-31.96-31.67-12.51,0-25.24,4.85-38.44,14.1l-6.71-13.18c15.52-10.4,30.79-15.72,47.46-15.72,30.79,0,50.01,18.04,50.01,48.56v49.24c0,5.09,1.85,7.17,6.49,7.4v17.57c-3.01,.46-6.03,.92-8.34,.92-6.71,0-14.82-3.47-15.29-12.25l-.47-8.55c-10.89,14.57-29.41,22.2-45.85,22.2-24.31,0-41.68-16.42-41.68-36.99h.02Zm80.35,7.39c3.01-3.47,4.4-6.93,4.4-9.48v-17.8c-9.49-3.7-20.6-5.78-30.56-5.78-20.84,0-34.74,9.25-34.74,23.82,0,12.49,10.19,23.59,27.33,23.59,12.97,0,26.63-6.24,33.57-14.34h0Z"/><path class="cls-3" d="M1036.42,449.84h20.37v137.56c0,9.02,5.1,14.34,13.66,14.34,3.48,0,8.56-1.15,12.51-2.77l3.24,16.42c-6.71,2.77-17.14,4.85-24.31,4.85-15.74,0-25.47-9.48-25.47-25.44v-144.96Z"/><path class="cls-3" d="M1100.79,558.49c0-34.22,22.93-62.66,54.88-62.66,19.45,0,35.42,11.55,44.23,26.12v-72.12h20.37v143.81c0,5.09,1.85,7.17,6.49,7.4v17.57c-3.25,.46-6.02,.92-8.11,.92-9.26,0-15.29-5.55-15.52-12.25l-.47-11.33c-9.49,15.49-26.86,24.97-44.23,24.97-33.57,0-57.65-29.12-57.65-62.43h0Zm99.1,17.79v-34.68c-5.79-15.72-23.16-28.21-38.44-28.21-23.85,0-39.6,22.19-39.6,45.31,0,24.27,18.06,44.62,41.45,44.62,14.59,0,33.57-12.02,36.59-27.05h0Z"/></svg>