<svg width="937" height="172" viewBox="0 0 937 172" fill="none" xmlns="http://www.w3.org/2000/svg">
<g clip-path="url(#clip0_304_14819)">
<path d="M0.0100098 108.442C0.0100098 74.4517 25.49 46.0117 61.83 46.0117C98.17 46.0117 122.26 75.1517 122.26 107.512C122.26 110.752 122.03 113.982 121.79 115.382H21.54C23.39 139.202 41.22 155.842 62.29 155.842C77.11 155.842 91.7 147.752 96.79 135.722L114.39 140.572C106.52 158.372 85.91 171.092 61.6 171.092C25.25 171.092 0 142.422 0 108.432H0.0100098V108.442ZM103.04 100.352C100.96 77.2317 83.36 61.2817 61.82 61.2817C40.28 61.2817 22.69 77.4617 21.07 100.352H103.04Z" fill="#454545"/>
<path d="M334.82 168.772H314.44V101.262C314.44 76.0617 306.1 64.2716 290.13 64.2716C274.16 64.2716 259.34 77.4517 253.78 96.1817V168.782H233.4V101.272C233.4 75.6016 225.29 64.2817 209.32 64.2817C193.35 64.2817 178.53 77.0017 172.97 95.9517V168.782H152.59V48.0917H171.11V73.9817C180.84 56.1817 197.27 46.0117 216.96 46.0117C236.65 46.0117 249.38 58.2617 252.15 75.3717C262.81 56.1817 278.55 46.0117 298.23 46.0117C326.01 46.0117 334.82 67.7516 334.82 96.6416V168.772Z" fill="#454545"/>
<path d="M366.08 108.442C366.08 74.4517 391.56 46.0117 427.9 46.0117C464.24 46.0117 488.33 75.1517 488.33 107.512C488.33 110.752 488.1 113.982 487.86 115.382H387.61C389.46 139.202 407.29 155.842 428.36 155.842C443.18 155.842 457.77 147.752 462.86 135.722L480.46 140.572C472.59 158.372 451.98 171.092 427.67 171.092C391.32 171.092 366.07 142.422 366.07 108.432H366.08V108.442ZM469.11 100.352C467.03 77.2317 449.43 61.2817 427.89 61.2817C406.35 61.2817 388.76 77.4617 387.14 100.352H469.11Z" fill="#454545"/>
<path d="M582.57 65.898C562.19 66.368 545.52 76.768 539.04 94.338V168.788H518.66V48.098H537.65V76.068C545.99 59.418 560.58 47.168 575.85 47.168C578.86 47.168 580.94 47.168 582.56 47.398V65.898H582.57Z" fill="#454545"/>
<path d="M599.47 134.102C599.47 111.212 620.54 96.1817 650.41 96.1817C662.23 96.1817 674.96 98.4917 684.22 102.202V92.4817C684.22 72.8317 672.41 60.8117 652.26 60.8117C639.75 60.8117 627.02 65.6617 613.82 74.9117L607.11 61.7317C622.63 51.3317 637.9 46.0117 654.57 46.0117C685.36 46.0117 704.58 64.0517 704.58 94.5717V143.812C704.58 148.902 706.43 150.982 711.07 151.212V168.782C708.06 169.242 705.04 169.702 702.73 169.702C696.02 169.702 687.91 166.232 687.44 157.452L686.97 148.902C676.08 163.472 657.56 171.102 641.12 171.102C616.81 171.102 599.44 154.682 599.44 134.112H599.46L599.47 134.102ZM679.82 141.492C682.83 138.022 684.22 134.562 684.22 132.012V114.212C674.73 110.512 663.62 108.432 653.66 108.432C632.82 108.432 618.92 117.682 618.92 132.252C618.92 144.742 629.11 155.842 646.25 155.842C659.22 155.842 672.88 149.602 679.82 141.502V141.492Z" fill="#454545"/>
<path d="M746.04 0.0078125H766.41V137.568C766.41 146.588 771.51 151.908 780.07 151.908C783.55 151.908 788.63 150.758 792.58 149.138L795.82 165.558C789.11 168.328 778.68 170.408 771.51 170.408C755.77 170.408 746.04 160.928 746.04 144.968V0.0078125Z" fill="#454545"/>
<path d="M810.41 108.66C810.41 74.44 833.34 46 865.29 46C884.74 46 900.71 57.55 909.52 72.12V0H929.89V143.81C929.89 148.9 931.74 150.98 936.38 151.21V168.78C933.13 169.24 930.36 169.7 928.27 169.7C919.01 169.7 912.98 164.15 912.75 157.45L912.28 146.12C902.79 161.61 885.42 171.09 868.05 171.09C834.48 171.09 810.4 141.97 810.4 108.66H810.41ZM909.51 126.45V91.77C903.72 76.05 886.35 63.56 871.07 63.56C847.22 63.56 831.47 85.75 831.47 108.87C831.47 133.14 849.53 153.49 872.92 153.49C887.51 153.49 906.49 141.47 909.51 126.44V126.45Z" fill="#454545"/>
</g>
<defs>
<clipPath id="clip0_304_14819">
<rect width="937" height="172" fill="white"/>
</clipPath>
</defs>
</svg>
