<svg width="937" height="172" viewBox="0 0 937 172" fill="none" xmlns="http://www.w3.org/2000/svg">
<path d="M0.0100098 108.44C0.0100098 74.4498 25.49 46.0098 61.83 46.0098C98.17 46.0098 122.26 75.1498 122.26 107.51C122.26 110.75 122.03 113.98 121.79 115.38H21.54C23.39 139.2 41.22 155.84 62.29 155.84C77.11 155.84 91.7 147.75 96.79 135.72L114.39 140.57C106.52 158.37 85.91 171.09 61.6 171.09C25.25 171.09 0 142.42 0 108.43H0.0100098V108.44ZM103.04 100.35C100.96 77.2298 83.36 61.2798 61.82 61.2798C40.28 61.2798 22.69 77.4598 21.07 100.35H103.04Z" fill="white"/>
<path d="M334.82 168.77H314.44V101.26C314.44 76.0598 306.1 64.2697 290.13 64.2697C274.16 64.2697 259.34 77.4498 253.78 96.1798V168.78H233.4V101.27C233.4 75.5997 225.29 64.2798 209.32 64.2798C193.35 64.2798 178.53 76.9998 172.97 95.9498V168.78H152.59V48.0898H171.11V73.9798C180.84 56.1798 197.27 46.0098 216.96 46.0098C236.65 46.0098 249.38 58.2598 252.15 75.3698C262.81 56.1798 278.55 46.0098 298.23 46.0098C326.01 46.0098 334.82 67.7497 334.82 96.6397V168.77Z" fill="white"/>
<path d="M366.08 108.44C366.08 74.4498 391.56 46.0098 427.9 46.0098C464.24 46.0098 488.33 75.1498 488.33 107.51C488.33 110.75 488.1 113.98 487.86 115.38H387.61C389.46 139.2 407.29 155.84 428.36 155.84C443.18 155.84 457.77 147.75 462.86 135.72L480.46 140.57C472.59 158.37 451.98 171.09 427.67 171.09C391.32 171.09 366.07 142.42 366.07 108.43H366.08V108.44ZM469.11 100.35C467.03 77.2298 449.43 61.2798 427.89 61.2798C406.35 61.2798 388.76 77.4598 387.14 100.35H469.11Z" fill="white"/>
<path d="M582.57 65.8999C562.19 66.3699 545.52 76.7699 539.04 94.3399V168.79H518.66V48.0999H537.65V76.0699C545.99 59.4199 560.58 47.1699 575.85 47.1699C578.86 47.1699 580.94 47.1699 582.56 47.3999V65.8999H582.57Z" fill="white"/>
<path d="M599.47 134.1C599.47 111.21 620.54 96.1798 650.41 96.1798C662.23 96.1798 674.96 98.4898 684.22 102.2V92.4798C684.22 72.8298 672.41 60.8098 652.26 60.8098C639.75 60.8098 627.02 65.6598 613.82 74.9098L607.11 61.7298C622.63 51.3298 637.9 46.0098 654.57 46.0098C685.36 46.0098 704.58 64.0498 704.58 94.5698V143.81C704.58 148.9 706.43 150.98 711.07 151.21V168.78C708.06 169.24 705.04 169.7 702.73 169.7C696.02 169.7 687.91 166.23 687.44 157.45L686.97 148.9C676.08 163.47 657.56 171.1 641.12 171.1C616.81 171.1 599.44 154.68 599.44 134.11H599.46L599.47 134.1ZM679.82 141.49C682.83 138.02 684.22 134.56 684.22 132.01V114.21C674.73 110.51 663.62 108.43 653.66 108.43C632.82 108.43 618.92 117.68 618.92 132.25C618.92 144.74 629.11 155.84 646.25 155.84C659.22 155.84 672.88 149.6 679.82 141.5V141.49Z" fill="white"/>
<path d="M746.04 0.00976562H766.41V137.57C766.41 146.59 771.51 151.91 780.07 151.91C783.55 151.91 788.63 150.76 792.58 149.14L795.82 165.56C789.11 168.33 778.68 170.41 771.51 170.41C755.77 170.41 746.04 160.93 746.04 144.97V0.00976562Z" fill="white"/>
<path d="M810.41 108.66C810.41 74.44 833.34 46 865.29 46C884.74 46 900.71 57.55 909.52 72.12V0H929.89V143.81C929.89 148.9 931.74 150.98 936.38 151.21V168.78C933.13 169.24 930.36 169.7 928.27 169.7C919.01 169.7 912.98 164.15 912.75 157.45L912.28 146.12C902.79 161.61 885.42 171.09 868.05 171.09C834.48 171.09 810.4 141.97 810.4 108.66H810.41ZM909.51 126.45V91.77C903.72 76.05 886.35 63.56 871.07 63.56C847.22 63.56 831.47 85.75 831.47 108.87C831.47 133.14 849.53 153.49 872.92 153.49C887.51 153.49 906.49 141.47 909.51 126.44V126.45Z" fill="white"/>
</svg>
