<svg width="31" height="31" viewBox="0 0 36 36" fill="none" xmlns="http://www.w3.org/2000/svg">
<circle cx="18" cy="18" r="18" fill="#F3F3F3"/>
<rect x="25" y="27.4141" width="2" height="6.49309" transform="rotate(-45 25 27.4141)" fill="#1B4357"/>
<rect x="29" y="19" width="2" height="7" transform="rotate(-90 29 19)" fill="#1B4357"/>
<rect x="17" width="2" height="7" fill="white" fill-opacity="0.6"/>
<rect x="17" width="2" height="7" fill="#1B4357"/>
<path d="M16.9502 10.8408L16.9414 11.6787L16.6836 11.7461C15.0723 12.1738 14.085 13.3428 14.085 14.8164C14.085 15.6309 14.3545 16.3398 14.8672 16.8877C15.4062 17.459 16.0068 17.7959 17.1758 18.1738C17.4834 18.2734 17.9961 18.4404 18.3184 18.5459C19.6221 18.9678 20.0674 19.3105 20.1816 19.9727C20.3047 20.6934 19.9209 21.1475 18.9922 21.3701C18.1221 21.5781 17.123 21.4639 16.3262 21.0684C16.0859 20.9482 15.7021 20.6875 15.5791 20.5615C15.5234 20.5059 15.4678 20.459 15.4531 20.459C15.4414 20.459 15.1074 20.7637 14.7148 21.1357L14 21.8125L14.1875 21.9883C14.4482 22.2314 14.5537 22.3135 14.8789 22.5273C15.3975 22.8701 16.1299 23.1807 16.7305 23.3154L16.9561 23.3652V24.1826V25H17.9521H18.9482L18.9541 24.2031L18.9629 23.4033L19.1533 23.3682C21.125 23.0137 22.2822 21.7568 22.1855 20.0811C22.1475 19.3867 21.9805 18.8535 21.6465 18.3496C21.4062 17.9834 20.8672 17.5029 20.4219 17.2539C19.9443 16.9902 19.5342 16.832 18.3564 16.46C17.0791 16.0557 16.6865 15.8828 16.3789 15.5869C16.1797 15.3936 16.1064 15.2207 16.0859 14.8955C16.0654 14.5732 16.1328 14.377 16.3437 14.1455C16.6543 13.8057 17.1699 13.6152 17.9668 13.5449C18.7578 13.4717 19.5898 13.6299 20.293 13.9814C20.4687 14.0723 20.5332 14.0898 20.5537 14.0635C20.5684 14.043 20.8145 13.668 21.0957 13.2314L21.6113 12.4316L21.4268 12.3291C21.1045 12.1504 20.7002 11.9717 20.3545 11.8604C20.0176 11.752 19.2676 11.582 19.1182 11.582C18.9395 11.582 18.9482 11.6172 18.9482 10.7734V10H17.9521H16.9561L16.9502 10.8408Z" fill="#1B4357"/>
</svg>
