<svg width="48" height="40" viewBox="0 0 48 40" fill="current" xmlns="http://www.w3.org/2000/svg">
<path d="M3.17285 0.69891V1.39786H3.96607H4.75929V0.69891V-3.76068e-05H3.96607H3.17285V0.69891Z" fill="current"/>
<path d="M6.3457 0.69891V1.39786L9.54657 1.38141L12.7381 1.35674L12.7661 0.674241L12.7941 -3.76068e-05H9.56524H6.3457V0.69891Z" fill="current"/>
<path d="M35.8349 2.75462V3.45356H37.2347C38.0093 3.45356 38.6345 3.47823 38.6345 3.51935C38.6345 3.55224 35.247 6.57005 31.0943 10.221L23.5634 16.8569H17.9642H12.365L6.29919 22.2018L0.233398 27.5467L0.793318 28.0401L1.35324 28.5334L7.18573 23.3941L13.0182 18.2548H18.6174H24.2166L32.0275 11.3722L39.8477 4.48143V5.73953V6.98942H40.6409H41.4341L41.4155 4.53899L41.3875 2.09678L38.6159 2.07212L35.8349 2.05567V2.75462Z" fill="current"/>
<path d="M3.17285 3.49475V4.1937H6.34573H9.5186V3.49475V2.7958H6.34573H3.17285V3.49475Z" fill="current"/>
<path d="M18.1971 2.85335C16.564 3.09181 14.8843 4.20191 14.147 5.50935C12.7659 8.00089 13.9137 10.9365 16.732 12.1206C17.5625 12.4659 18.1691 12.5811 19.1583 12.5811C20.7074 12.5811 21.8552 12.1535 23.0031 11.142C23.8243 10.4267 24.2349 9.80171 24.4962 8.92186C24.6828 8.28869 24.6828 7.08815 24.4962 6.46321C23.9923 4.78573 22.3965 3.38784 20.4834 2.96025C19.8115 2.80401 18.813 2.7629 18.1971 2.85335ZM19.8862 3.88121C19.8862 4.3088 19.8955 4.32525 20.3248 4.56371C20.8474 4.85974 21.2487 5.41067 21.3327 5.93694L21.398 6.33164H20.6141C19.8489 6.33164 19.8302 6.32342 19.6809 6.09318C19.2516 5.43534 18.1318 5.98628 18.5237 6.66056C18.6077 6.80035 18.757 6.92369 18.8783 6.94014C18.9903 6.9648 19.2983 7.02237 19.5502 7.0717C21.6219 7.48285 22.0326 9.9415 20.1942 10.9365C19.9049 11.1009 19.8769 11.1503 19.8769 11.5203V11.9232H19.0836H18.2904V11.4792C18.2904 11.1092 18.2624 11.0187 18.1131 10.9776C17.6185 10.846 16.9933 10.0484 16.8533 9.39056L16.8066 9.12743H17.6372C18.1318 9.12743 18.4771 9.16032 18.4771 9.20966C18.4771 9.3659 18.8503 9.62081 19.0743 9.62081C19.4289 9.62081 19.7835 9.32478 19.7835 9.01231C19.7835 8.65873 19.5596 8.49427 18.953 8.38737C18.0198 8.23113 17.3852 7.82821 17.0493 7.16215C16.8253 6.71812 16.8066 5.92049 17.0119 5.50113C17.1799 5.1311 17.6745 4.6295 18.0198 4.47326C18.2624 4.36636 18.2904 4.3088 18.2904 3.95522C18.2904 3.74142 18.3184 3.53585 18.3558 3.51118C18.3837 3.47829 18.7477 3.45362 19.149 3.45362H19.8769L19.8862 3.88121ZM15.9574 7.68842V8.38737H15.1642H14.371V7.68842V6.98947H15.1642H15.9574V7.68842ZM23.8896 7.68842V8.38737H23.0964H22.3032V7.68842V6.98947H23.0964H23.8896V7.68842Z" fill="current"/>
<path d="M39.0077 24.1753V38.5654H37.0013H34.9949V29.808V21.0506H32.6153H30.2356V29.808V38.5654H28.2759H26.3162V29.808V21.0506H23.8899H21.4636V29.808V38.5654H19.5038H17.5441V31.9049V25.2443H15.1645H12.7848V31.9049V38.5654H10.7784H8.77207V34.7007V30.8359H6.39241H4.01275V34.7007V38.5654H2.00638H0V39.2644V39.9633H23.8899H47.7798V39.2644V38.5654H45.7734H43.767V24.1753V9.78523H41.3874H39.0077V24.1753Z" fill="current"/>
</svg>
