<svg width="19" height="18" viewBox="0 0 19 18" fill="none" xmlns="http://www.w3.org/2000/svg">
<path d="M2.20696 0.0243334C1.39002 0.141636 0.639925 0.704689 0.27973 1.47498C-0.0247655 2.13187 -0.00619872 1.68612 0.00494135 8.52878L0.0160814 14.5894L0.116342 14.9022C0.342857 15.6021 0.810739 16.1886 1.37517 16.4819C1.99901 16.8025 1.48657 16.7752 7.43908 16.7908L12.7417 16.8025L12.972 16.9707C14.8992 18.4135 17.5803 17.6823 18.62 15.434C19.2104 14.1593 19.1064 12.6109 18.3526 11.4105C17.8179 10.562 16.7856 9.87776 15.7718 9.70181L15.6345 9.67835L15.6233 5.91684L15.6122 2.15533L15.5156 1.87381C15.2 0.966665 14.6133 0.368421 13.7741 0.094715L13.4956 0.00478295L7.96266 0.000872855C4.91771 -0.00303723 2.3295 0.00869304 2.20696 0.0243334ZM13.503 1.09961C14.0414 1.26774 14.4759 1.73304 14.6133 2.28828C14.6578 2.46814 14.6653 3.03901 14.6653 5.57275V8.64217L13.2839 7.19153C11.9397 5.7839 11.8951 5.73697 11.728 5.71351C11.6055 5.69396 11.5238 5.70178 11.4495 5.74479C11.3901 5.77999 10.4246 6.77315 9.29947 7.95791L7.25712 10.1124L5.82748 8.61089C4.50181 7.2189 4.3867 7.10551 4.24188 7.08205C4.13791 7.06641 4.05621 7.07423 3.98194 7.11333C3.92624 7.14852 3.22071 7.86797 2.42234 8.71646L0.962987 10.257V6.38214C0.962987 2.1827 0.959274 2.28437 1.16351 1.89727C1.34546 1.55318 1.74279 1.22473 2.13269 1.0957C2.25152 1.0566 3.45094 1.04487 7.79927 1.04487C12.6044 1.04096 13.3396 1.04878 13.503 1.09961ZM13.9894 9.84257C13.607 9.96769 13.3693 10.0928 12.92 10.4056C11.7503 11.2189 11.093 12.8533 11.3418 14.3392C11.4049 14.7341 11.6203 15.4144 11.7503 15.6491L11.8468 15.8211L7.15686 15.8094C3.84455 15.8015 2.40748 15.782 2.27009 15.7507C1.64624 15.61 1.17836 15.1447 1.01869 14.5112C0.974127 14.3274 0.962987 14.0264 0.962987 13.0058V11.7351L2.54488 10.042C3.4138 9.11529 4.14533 8.35282 4.16761 8.35282C4.19361 8.35282 4.83973 9.01363 5.60468 9.81911C7.09002 11.3831 7.1123 11.4027 7.38709 11.3245C7.49107 11.2932 7.94038 10.8396 9.57797 9.11529L11.6389 6.94519L12.9683 8.345L14.2939 9.74091L13.9894 9.84257ZM15.5676 10.7184C16.2694 10.8005 17.0344 11.2893 17.4689 11.9306C18.3006 13.1622 18.1521 14.7967 17.1198 15.8602C16.5888 16.4037 15.9241 16.6813 15.148 16.6813C14.3459 16.6813 13.6441 16.3607 13.0648 15.7273C12.5561 15.1759 12.337 14.6285 12.2999 13.827C12.259 12.912 12.5152 12.2277 13.1428 11.5552C13.6144 11.0508 14.1528 10.7771 14.8138 10.6989C15.0886 10.6676 15.1369 10.6715 15.5676 10.7184Z" fill="#1B4357"/>
<path d="M6.90819 4.40341C6.51457 4.48944 6.15438 4.79051 5.98356 5.17761C5.89815 5.36921 5.8833 5.45132 5.8833 5.75239C5.8833 6.05738 5.89815 6.13167 5.98727 6.32718C6.21008 6.80421 6.59627 7.07009 7.11242 7.09355C7.57659 7.11702 7.91822 6.94888 8.20415 6.56178C8.4418 6.23725 8.5235 5.76021 8.40838 5.35748C8.22271 4.69276 7.5506 4.26656 6.90819 4.40341Z" fill="#1B4357"/>
<path d="M14.9621 11.5241C14.8507 11.571 13.6772 12.787 13.603 12.9356C13.4322 13.2758 13.655 13.6707 14.0152 13.6707C14.1897 13.6707 14.2714 13.6238 14.4905 13.4048L14.665 13.225V14.3511C14.665 15.4146 14.6687 15.4889 14.7393 15.6062C14.8841 15.8565 15.2034 15.9229 15.4225 15.7548C15.6193 15.6062 15.6305 15.528 15.6305 14.3315V13.225L15.831 13.4322C16.0018 13.6121 16.0575 13.6433 16.206 13.6629C16.6034 13.7098 16.8522 13.3462 16.6925 12.9552C16.6294 12.7988 15.4634 11.5788 15.3223 11.5241C15.196 11.4733 15.0883 11.4733 14.9621 11.5241Z" fill="#1B4357"/>
</svg>
